<?xml version="1.0" encoding="utf-8"?>
<!-- Generator: Adobe Illustrator 25.4.1, SVG Export Plug-In . SVG Version: 6.00 Build 0)  -->
<svg version="1.1" id="Layer_1" xmlns="http://www.w3.org/2000/svg" xmlns:xlink="http://www.w3.org/1999/xlink" x="0px" y="0px"
	 viewBox="0 0 396.4 50.1" style="enable-background:new 0 0 396.4 50.1;" xml:space="preserve">
<style type="text/css">
	.st0{fill:#E07A34;}
	.st1{fill:#707071;}
</style>
<path class="st0" d="M41.2,0H9.4C4.2,0,0,4.2,0,9.4c0,0,0,0,0,0v31.3c0,5.2,4.2,9.4,9.4,9.4c0,0,0,0,0,0h31.8c5.2,0,9.4-4.2,9.4-9.4
	c0,0,0,0,0,0V9.4C50.6,4.2,46.4,0,41.2,0C41.2,0,41.2,0,41.2,0z M45.9,39.1c0,3.4-2.8,6.2-6.2,6.2h0H26.3c-1.8,0-3.2-1.4-3.2-3.2
	l0,0v-4.8c0-0.2,0.1-0.4,0.3-0.5l0,0c0.8-0.3,1.7-0.2,2.3,0.3l0.3,0.2c0.1,0.1,0.2,0.2,0.3,0.2c0.8,0.7,1.8,1.2,2.9,1.2
	c2.4-0.3,4.1-2.5,3.8-4.9c-0.3-2-1.8-3.5-3.8-3.8c-1,0-2,0.4-2.8,1.2c-0.1,0.1-0.3,0.2-0.4,0.3l-0.4,0.2c-0.6,0.4-1.3,0.5-2,0.3l0,0
	c-0.3-0.1-0.6-0.4-0.5-0.7V18.1c0-0.4-0.3-0.7-0.6-0.8l0,0c-0.7-0.2-1.5-0.1-2.1,0.4l-0.2,0.2c-0.1,0.1-0.3,0.2-0.4,0.3
	c-0.8,0.7-1.8,1.1-2.9,1.2c-2.4-0.3-4.1-2.5-3.8-4.9c0.3-2,1.8-3.5,3.8-3.8c1.1,0,2.1,0.5,2.9,1.2c0.1,0.1,0.2,0.2,0.3,0.2l0.4,0.2
	c0.6,0.4,1.3,0.5,2,0.3l0,0c0.4-0.1,0.6-0.4,0.6-0.8v-5c0-1.2,1-2.2,2.2-2.2h15.9c2.6,0,4.8,2.2,4.8,4.8L45.9,39.1z"/>
<path class="st1" d="M88.6,7.6c-5.9,0-8.8,2.1-8.8,6.2c0,2.1,0.7,3.6,2.1,4.5c1.4,0.9,4.5,2,9.2,3.3c4.7,1.3,8.1,2.9,10,4.7
	c1.9,1.8,2.9,4.7,2.9,8.6c0,5-1.4,8.7-4.3,11.2c-2.8,2.5-6.7,3.7-11.6,3.7c-4.4,0-8.8-0.5-13.1-1.4l-2.5-0.5l0.8-6.2
	c4.7,0.7,9.5,1.1,14.3,1.2c5.7,0,8.6-2.5,8.6-7.6c0.1-1.7-0.6-3.4-1.9-4.4c-1.3-0.9-4.2-2-8.8-3.1c-4.5-1.1-7.9-2.7-10.1-4.7
	c-2.2-2-3.3-5.1-3.3-9.4c0-4.3,1.4-7.5,4.2-9.8c2.8-2.2,6.7-3.3,11.6-3.3c4.2,0.1,8.4,0.5,12.6,1.2l2.4,0.4l-0.6,6.2
	C95.8,7.9,91.3,7.6,88.6,7.6z"/>
<path class="st1" d="M111.1,18.2c2.4-3,6.4-4.5,11.9-4.5s9.5,1.5,11.9,4.5c2.4,3,3.5,7.5,3.5,13.5c0,6-1.2,10.5-3.5,13.6
	c-2.3,3.1-6.3,4.6-12,4.6c-5.7,0-9.7-1.5-12-4.6c-2.3-3-3.5-7.6-3.5-13.6C107.5,25.7,108.7,21.2,111.1,18.2z M116.7,40.8
	c1.1,1.8,3.2,2.8,6.2,2.8s5.2-0.9,6.2-2.8c1.1-1.9,1.6-4.9,1.6-9.1c0-4.2-0.6-7.2-1.7-9S125.9,20,123,20s-5,0.9-6.1,2.6
	s-1.7,4.8-1.7,9S115.7,38.9,116.7,40.8z"/>
<path class="st1" d="M156.6,13.7c2.9,0.1,5.8,0.4,8.7,1L167,15l-0.3,6c-3.6-0.4-6.4-0.6-8.1-0.6c-3.5,0-5.9,0.8-7.1,2.4
	c-1.2,1.6-1.8,4.5-1.8,8.9s0.6,7.4,1.7,9s3.6,2.5,7.2,2.5l8.1-0.6l0.2,6c-3.5,0.7-7,1.1-10.6,1.2c-5.3,0-9-1.4-11.1-4.3
	c-2.1-2.8-3.2-7.5-3.2-14c0-6.5,1.1-11.1,3.4-13.8S151.5,13.7,156.6,13.7z"/>
<path class="st1" d="M181.4,49.2h-7.6V0h7.6v28.4l4.3-0.4l8.2-13.5h8.5l-10,16.2L203,49.2h-8.6l-8.5-14.7l-4.5,0.5V49.2z"/>
<path class="st1" d="M232.8,42.9l1.9-0.2l0.1,5.6c-4.6,1-9.3,1.5-14,1.6c-5.1,0-8.8-1.4-11.1-4.2c-2.2-2.8-3.4-7.3-3.4-13.5
	c0-12.3,5-18.5,15.1-18.5c9.7,0,14.6,5.3,14.6,15.9l-0.5,5.4h-21.5c0,2.9,0.7,5,1.9,6.3s3.4,2,6.7,2S229.3,43.2,232.8,42.9z
	 M228.6,29.2c0-3.4-0.5-5.8-1.6-7.2s-2.9-2-5.5-2s-4.5,0.7-5.7,2.2s-1.8,3.8-1.8,7.1L228.6,29.2z"/>
<path class="st1" d="M262.3,20.9h-9.6v15.3c0,2.8,0.2,4.7,0.6,5.6s1.5,1.4,3.2,1.4l5.7-0.2l0.3,6c-2.3,0.5-4.7,0.8-7.1,0.9
	c-3.9,0-6.6-0.9-8.1-2.7s-2.2-5.2-2.2-10.2V20.9h-4.4v-6.5h4.4V4.4h7.5v10.1h9.6V20.9z"/>
<path class="st0" d="M296.2,49.2h-26.7V1.6h7.7v40.7h19L296.2,49.2z"/>
<path class="st0" d="M327.2,25.1V41c0,0.8,0.3,1.6,0.8,2.3c0.6,0.5,1.4,0.9,2.3,0.9L330,50c-4,0-7.1-0.9-9.2-2.6
	c-3.5,1.7-7.3,2.5-11.2,2.6c-6.9,0-10.3-3.7-10.3-11c0-3.5,0.9-6.1,2.8-7.6s4.8-2.5,8.6-2.8l9-0.8v-2.5c0-1.8-0.4-3.1-1.2-3.9
	c-1-0.8-2.3-1.2-3.6-1.1c-3,0-6.7,0.2-11.1,0.6l-2.2,0.1l-0.3-5.3c4.6-1.1,9.2-1.7,13.9-1.8c4.2,0,7.3,0.9,9.2,2.7
	S327.2,21.2,327.2,25.1z M311.6,33.8c-3.2,0.3-4.8,2-4.8,5.2s1.4,4.8,4.2,4.8c2.5,0,5-0.4,7.4-1.1l1.2-0.4V33L311.6,33.8z"/>
<path class="st0" d="M350.4,13.8c4.8,0,8.2,1.3,10.3,4c2.1,2.7,3.2,7.4,3.2,14.1s-1.2,11.5-3.8,14.1s-6.9,4-13.2,4
	c-2.2,0-5.6-0.2-10.3-0.6l-2.4-0.2V0.1h7.5v15.8C344.5,14.6,347.4,13.9,350.4,13.8z M347,43.3c3.7,0,6.2-0.9,7.4-2.6
	s1.8-4.7,1.8-8.8c0-4.2-0.5-7.1-1.6-8.8c-1.1-1.7-3.1-2.7-5.1-2.5c-2.3,0-4.5,0.3-6.7,1l-1.1,0.3V43C344.3,43.2,346.1,43.3,347,43.3
	L347,43.3z"/>
<path class="st0" d="M395.2,21.6c-3.9-0.6-7.9-1-11.9-1.1c-2.5,0-4.2,0.3-5.1,0.9c-0.9,0.6-1.5,1.6-1.4,2.7
	c-0.1,1.1,0.6,2.2,1.6,2.6c2.4,0.9,4.8,1.4,7.4,1.8c3.9,0.7,6.6,1.7,8.2,3.2c1.6,1.4,2.4,4,2.4,7.6s-1.2,6.3-3.5,8.1
	s-5.8,2.6-10.2,2.6c-3.6-0.1-7.2-0.5-10.7-1.2l-2.1-0.3l0.3-6.3c4,0.6,8,1,12,1.1c1.8,0.1,3.6-0.2,5.2-0.9c1.1-0.6,1.7-1.8,1.6-3
	c0.1-1.2-0.5-2.3-1.5-2.9c-1-0.5-3.4-1.1-7.1-1.7s-6.5-1.6-8.3-3c-1.8-1.3-2.6-3.8-2.6-7.4s1.2-6.2,3.6-8c2.7-1.9,6-2.8,9.3-2.6
	c3.7,0.1,7.3,0.4,10.9,1.1l2.1,0.4L395.2,21.6z"/>
</svg>
