<svg xmlns="http://www.w3.org/2000/svg" width="855" height="149" fill-rule="evenodd" xmlns:v="https://vecta.io/nano"><g fill="#4e48e0"><path d="M148.117 50.867c-.583-.848-1.553-1.283-2.531-1.283H89.895L117.666 5.23c.715-1.139.755-2.698-.113-3.948C116.964.433 115.984 0 115.002 0H67.045c-4.815 0-9.314 2.58-12.011 6.887L.532 93.939a3.61 3.61 0 0 0 .116 3.949c.582.847 1.552 1.281 2.531 1.281h55.663l-27.774 44.365c-.5.8-.653 1.807-.425 2.767.351 1.487 1.669 2.463 3.09 2.463h47.929c4.851 0 9.384-2.6 12.1-6.939l26.699-42.656h.001l27.769-44.354c.714-1.139.744-2.7-.114-3.948"/><path d="M120.467 99.159l-26.705 42.665c-2.716 4.34-7.25 6.939-12.1 6.939H33.733c-1.421 0-2.739-.975-3.09-2.462-.228-.96-.075-1.967.425-2.767l27.779-44.375h61.62z"/></g><path d="M89.859 49.584h55.727c.978 0 1.948.435 2.531 1.282.859 1.249.827 2.809.115 3.949l-27.769 44.354H58.819l31.04-49.585z" fill="#1c81c1"/><path d="M3.179 99.169c-.978 0-1.948-.434-2.53-1.281-.86-1.25-.83-2.809-.116-3.948L55.035 6.887C57.731 2.58 62.231 0 67.045 0h47.957c.982 0 1.963.434 2.552 1.282.867 1.25.827 2.809.113 3.949L58.848 99.169H3.179z" fill="#5cc4cd"/><g fill="#3a3945"><path d="M479.19 82.041h1.435 28.472l4.134.015s-.001-.201-.175-1.014c-.62-2.911-1.74-5.575-3.693-7.845-4.54-5.272-12.599-7.07-19.49-4.294-5.913 2.381-9.138 6.986-10.683 13.138m24.269 11.569c-7.692 0-15.382.017-23.073-.02-1.004-.006-1.193.204-.924 1.19 2.016 7.353 7.875 12.397 15.416 13.216 8.484.921 16.254-1.207 23.519-5.488l1.299-.765 6.131 10.875s-.175.098-.822.529c-9.136 6.106-19.195 8.748-30.144 8.109-4.886-.285-9.585-1.334-13.997-3.478-6.524-3.169-11.326-8.078-14.198-14.726-3.994-9.244-4.232-18.687-.68-28.096 4.561-12.085 15.682-19.608 29.195-20.023 6.967-.214 13.581 1.078 19.514 4.884 8.379 5.375 12.35 13.367 13.361 23.04.33 3.162.161 6.312-.113 9.473l-.129 1.3-24.355-.02m152.355-11.569h1.434 28.473l4.134.015s-.002-.201-.175-1.014c-.621-2.911-1.741-5.575-3.694-7.845-4.539-5.272-12.599-7.07-19.489-4.294-5.913 2.381-9.138 6.986-10.683 13.138m24.268 11.569c-7.691 0-15.382.017-23.073-.02-1.004-.006-1.193.204-.923 1.19 2.015 7.353 7.874 12.397 15.416 13.216 8.483.921 16.254-1.207 23.519-5.488l1.298-.765 6.132 10.875s-.175.098-.823.529c-9.136 6.106-19.194 8.748-30.144 8.109-4.886-.285-9.585-1.334-13.996-3.478-6.524-3.169-11.327-8.078-14.199-14.726-3.994-9.244-4.232-18.687-.679-28.096 4.561-12.085 15.681-19.608 29.194-20.023 6.968-.214 13.581 1.078 19.515 4.884 8.378 5.375 12.35 13.367 13.36 23.04.33 3.162.161 6.312-.113 9.473l-.129 1.3-24.355-.02"/><path d="M610.168 54.923c6.99.134 13.979 2.583 19.646 8.339l.876.886-7.927 9.652-.759-.719c-3.666-3.46-7.956-5.563-13.074-5.759-1.606-.061-3.167.153-4.63.852-3.958 1.891-4.538 6.535-1.175 9.344 1.113.929 2.422 1.483 3.754 2.004 4.793 1.868 9.664 3.547 14.273 5.86 3.37 1.691 6.396 3.833 8.521 7.026 3.961 5.953 3.303 14.921-1.47 20.636-4.174 4.996-9.711 7.368-16 8.127-8.985 1.084-17.24-.796-24.455-6.477-1.845-1.453-3.431-3.164-4.881-5.01l-.553-.722 8.614-9.27.673.807c3.463 4.161 7.818 6.881 13.186 7.839 3.066.546 6.089.433 8.904-1.088 2.849-1.537 4.09-4.245 3.206-6.911-.483-1.457-1.518-2.477-2.754-3.32-1.649-1.126-3.51-1.816-5.34-2.56-3.921-1.592-7.928-2.977-11.751-4.803-5.088-2.43-8.918-6.035-10.323-11.698-2.242-9.031 2.432-17.653 11.321-21.079 3.603-1.389 7.336-1.948 12.118-1.956m-253.819 51.628c-10.118 0-18.35-8.231-18.35-18.35s8.232-18.349 18.35-18.349 18.35 8.231 18.35 18.349-8.232 18.35-18.35 18.35h0zm19.981-51.636l-1.501 7.682c-4.667-4.823-11.646-7.628-18.48-7.628-18.324 0-33.232 14.908-33.232 33.232s14.908 33.233 33.232 33.233c6.834 0 13.503-2.727 18.48-7.627l1.501 7.657h13.382V54.915H376.33zm444.896 51.636c-10.118 0-18.35-8.231-18.35-18.35s8.232-18.349 18.35-18.349 18.349 8.231 18.349 18.349-8.231 18.35-18.349 18.35h0zm18.48-73.845v29.891c-4.701-4.318-11.646-7.628-18.48-7.628-18.324 0-33.232 14.908-33.232 33.232s14.908 33.233 33.232 33.233c6.834 0 13.372-3.141 18.48-7.628l1.5 7.658h13.383V32.706h-14.883z"/><path d="M406.023 121.463h14.883V58.044h-14.883zm341.458-66.499c-5.512 0-11.829 3.495-15.118 7.729l-2.5-7.783H717.48v29.169 37.38h14.883.12v-37.38c0-7.847 6.727-14.232 14.998-14.232s14.996 6.385 14.996 14.232v37.38h15.003v-37.38c0-16.053-13.458-29.115-29.999-29.115m-311.068 66.499h14.883V32.706h-14.883zm-13.23-80.745A9.72 9.72 0 0 0 413.465 31a9.72 9.72 0 0 0-9.718 9.718 9.72 9.72 0 0 0 9.718 9.718 9.72 9.72 0 0 0 9.718-9.718m145.031 14.311c-4.962.395-9.475 3.224-13.376 5.979l-1.5-6.093h-13.383v30.581c-.135 1.174-.212 2.341-.212 3.492v32.056h.212v.42h14.883v-.42h.212V88.988c0-7.069 6.037-18.036 14.376-18.699 2.07-.162 4.035.091 6.803.877l4.187-14.723c-3.049-.867-7.194-1.81-12.202-1.414m-285.684-.088c-8.619 0-16.372 3.769-21.707 9.74-5.336-5.971-13.089-9.74-21.708-9.74-16.054 0-29.115 13.062-29.115 29.115v37.38h14.883v-37.38c0-7.847 6.384-14.232 14.232-14.232s14.232 6.385 14.232 14.232v37.38h.068 7.408 7.407.068v-37.38c0-7.847 6.384-14.232 14.232-14.232s14.232 6.385 14.232 14.232v37.38h14.883v-37.38c0-16.053-13.061-29.115-29.115-29.115"/></g></svg>